<svg width="28" height="31" viewBox="0 0 28 31" fill="none" xmlns="http://www.w3.org/2000/svg">
<path d="M22.9962 29.2964C21.2516 30.8795 19.3468 30.6295 17.5132 29.8796C15.5729 29.1131 13.7927 29.0797 11.7455 29.8796C9.18203 30.9128 7.82911 30.6129 6.29816 29.2964C-2.38908 20.9141 -1.10736 8.14903 8.7548 7.68243C11.158 7.79908 12.8314 8.9156 14.2377 9.01559C16.3383 8.61564 18.3499 7.46579 20.5929 7.61577C23.281 7.81574 25.3104 8.81562 26.6455 10.6154C21.0914 13.7317 22.4087 20.5808 27.5 22.4972C26.4853 24.9969 25.168 27.4799 22.9784 29.313L22.9962 29.2964ZM14.0597 7.58244C13.7927 3.86624 17.0148 0.799962 20.7175 0.5C21.2338 4.79946 16.5519 7.99905 14.0597 7.58244Z" fill="black"/>
<path d="M17.2802 11.9755C15.9344 11.9755 15.3656 12.5766 14.4284 12.5766C13.4674 12.5766 12.7344 11.9798 11.5682 11.9798C10.4267 11.9798 9.20936 12.6323 8.43632 13.7437C7.35086 15.311 7.53511 18.2628 9.29314 20.7775C9.92199 21.6777 10.7618 22.6872 11.8633 22.6982H11.8833C12.8406 22.6982 13.125 22.1114 14.4424 22.1045H14.4624C15.7602 22.1045 16.0205 22.6947 16.9738 22.6947H16.9938C18.0953 22.6838 18.9802 21.5652 19.609 20.6684C20.0616 20.0235 20.2298 19.6998 20.577 18.9702C18.0339 18.0666 17.6253 14.6917 20.1404 13.3978C19.3727 12.4979 18.2939 11.9767 17.2769 11.9767L17.2802 11.9755Z" fill="black"/>
<path d="M16.9838 8.69897C16.1827 8.74991 15.2481 9.22735 14.7007 9.8507C14.2041 10.4156 13.7955 11.2537 13.9557 12.0664H14.0198C14.873 12.0664 15.7461 11.5855 16.2562 10.9693C16.7475 10.3828 17.12 9.55168 16.9838 8.69897Z" fill="black"/>
</svg>
