<svg width="20" height="20" viewBox="0 0 20 20" fill="none" xmlns="http://www.w3.org/2000/svg">
<path d="M15 1.6665H4.99996C4.77895 1.6665 4.56698 1.7543 4.4107 1.91058C4.25442 2.06686 4.16663 2.27882 4.16663 2.49984V17.4998C4.16662 17.6591 4.21227 17.8151 4.29817 17.9493C4.38408 18.0834 4.50663 18.1901 4.65133 18.2568C4.79602 18.3234 4.95678 18.3472 5.11457 18.3253C5.27236 18.3034 5.42057 18.2367 5.54163 18.1332L9.99996 14.3915L14.4083 18.0915C14.4862 18.1687 14.5785 18.2298 14.68 18.2713C14.7816 18.3128 14.8903 18.3338 15 18.3332C15.1093 18.336 15.2177 18.3132 15.3166 18.2665C15.4688 18.204 15.5991 18.0978 15.691 17.9614C15.783 17.825 15.8325 17.6644 15.8333 17.4998V2.49984C15.8333 2.27882 15.7455 2.06686 15.5892 1.91058C15.4329 1.7543 15.221 1.6665 15 1.6665V1.6665ZM14.1666 15.7165L10.5333 12.6665C10.3836 12.5418 10.1948 12.4735 9.99996 12.4735C9.80508 12.4735 9.61637 12.5418 9.46663 12.6665L5.83329 15.7165V3.33317H14.1666V15.7165Z" fill="#134441"/>
</svg>
