<svg width="50" height="50" viewBox="0 0 50 50" fill="none" xmlns="http://www.w3.org/2000/svg">
<g clip-path="url(#clip0_626_4104)">
<path d="M31.25 6.25C32.3012 6.24967 33.3136 6.64668 34.0844 7.36145C34.8552 8.07622 35.3274 9.05593 35.4062 10.1042L35.4166 10.4167C35.4167 10.9269 35.604 11.4195 35.9431 11.8008C36.2822 12.1821 36.7494 12.4257 37.2562 12.4854L37.5 12.5H39.5833C41.1775 12.4999 42.7114 13.109 43.8713 14.2027C45.0312 15.2963 45.7294 16.7919 45.8229 18.3833L45.8333 18.75V37.5C45.8334 39.0942 45.2243 40.6282 44.1306 41.788C43.037 42.9479 41.5414 43.6461 39.95 43.7396L39.5833 43.75H10.4166C8.82244 43.7501 7.28847 43.141 6.12858 42.0473C4.96869 40.9537 4.27057 39.4581 4.17704 37.8667L4.16663 37.5V18.75C4.16654 17.1558 4.77564 15.6218 5.8693 14.462C6.96296 13.3021 8.45852 12.6039 10.05 12.5104L10.4166 12.5H12.5C13.0525 12.5 13.5824 12.2805 13.9731 11.8898C14.3638 11.4991 14.5833 10.9692 14.5833 10.4167C14.583 9.36547 14.98 8.35299 15.6947 7.58219C16.4095 6.8114 17.3892 6.33926 18.4375 6.26042L18.75 6.25H31.25ZM25 20.8333C23.4512 20.8332 21.9576 21.4081 20.8086 22.4466C19.6596 23.4851 18.9371 24.9133 18.7812 26.4542L18.7583 26.7708L18.75 27.0833L18.7583 27.3958C18.8194 28.6171 19.2375 29.7937 19.9607 30.7798C20.684 31.7658 21.6806 32.518 22.8271 32.9433C23.9736 33.3685 25.2197 33.4481 26.411 33.1721C27.6023 32.8961 28.6865 32.2767 29.5292 31.3907C30.372 30.5046 30.9363 29.3908 31.1522 28.1871C31.3682 26.9835 31.2263 25.743 30.7442 24.6192C30.2621 23.4954 29.4609 22.5377 28.4399 21.8648C27.4188 21.1919 26.2228 20.8332 25 20.8333Z" fill="white"/>
</g>
<defs>
<clipPath id="clip0_626_4104">
<rect width="50" height="50" fill="white"/>
</clipPath>
</defs>
</svg>
