<svg width="25" height="24" viewBox="0 0 25 24" fill="none" xmlns="http://www.w3.org/2000/svg">
<path d="M7.5 17L10.7 10.2L17.5 7L14.3 13.8L7.5 17ZM12.5 11.1C12.2613 11.1 12.0324 11.1948 11.8636 11.3636C11.6948 11.5324 11.6 11.7613 11.6 12C11.6 12.2387 11.6948 12.4676 11.8636 12.6364C12.0324 12.8052 12.2613 12.9 12.5 12.9C12.7387 12.9 12.9676 12.8052 13.1364 12.6364C13.3052 12.4676 13.4 12.2387 13.4 12C13.4 11.7613 13.3052 11.5324 13.1364 11.3636C12.9676 11.1948 12.7387 11.1 12.5 11.1ZM12.5 2C13.8132 2 15.1136 2.25866 16.3268 2.7612C17.5401 3.26375 18.6425 4.00035 19.5711 4.92893C20.4997 5.85752 21.2362 6.95991 21.7388 8.17317C22.2413 9.38642 22.5 10.6868 22.5 12C22.5 14.6522 21.4464 17.1957 19.5711 19.0711C17.6957 20.9464 15.1522 22 12.5 22C11.1868 22 9.88642 21.7413 8.67317 21.2388C7.45991 20.7362 6.35752 19.9997 5.42893 19.0711C3.55357 17.1957 2.5 14.6522 2.5 12C2.5 9.34784 3.55357 6.8043 5.42893 4.92893C7.3043 3.05357 9.84784 2 12.5 2ZM12.5 4C10.3783 4 8.34344 4.84285 6.84315 6.34315C5.34285 7.84344 4.5 9.87827 4.5 12C4.5 14.1217 5.34285 16.1566 6.84315 17.6569C8.34344 19.1571 10.3783 20 12.5 20C14.6217 20 16.6566 19.1571 18.1569 17.6569C19.6571 16.1566 20.5 14.1217 20.5 12C20.5 9.87827 19.6571 7.84344 18.1569 6.34315C16.6566 4.84285 14.6217 4 12.5 4Z" fill="#999999"/>
</svg>
