<svg width="32" height="32" viewBox="0 0 32 32" fill="none" xmlns="http://www.w3.org/2000/svg">
<path fill-rule="evenodd" clip-rule="evenodd" d="M2.75996 7.01075C2.66663 7.50141 2.66663 8.09075 2.66663 9.26675V18.6667C2.66663 23.6947 2.66663 26.2094 4.22929 27.7707C5.79063 29.3334 8.30529 29.3334 13.3333 29.3334H18.6666C23.6946 29.3334 26.2093 29.3334 27.7706 27.7707C29.3333 26.2094 29.3333 23.6947 29.3333 18.6667V15.7307C29.3333 12.2214 29.3333 10.4654 28.3066 9.32541C28.2125 9.22019 28.1128 9.12004 28.008 9.02541C26.868 8.00008 25.112 8.00008 21.6026 8.00008H21.104C19.5666 8.00008 18.7973 8.00008 18.08 7.79608C17.6863 7.68355 17.3069 7.52607 16.9493 7.32675C16.2986 6.96541 15.7546 6.42008 14.6666 5.33341L13.9333 4.60008C13.568 4.23475 13.3866 4.05341 13.1946 3.89341C12.3688 3.20893 11.3559 2.78934 10.288 2.68941C10.04 2.66675 9.78129 2.66675 9.26663 2.66675C8.08929 2.66675 7.50129 2.66675 7.01063 2.76008C5.95708 2.95905 4.98796 3.47093 4.2297 4.22895C3.47144 4.98697 2.95925 5.95726 2.75996 7.01075ZM21.7106 4.00008C22.1973 4.00008 22.4413 4.00008 22.6466 4.02675C24.004 4.21341 25.084 5.28408 25.332 6.66675C25.1289 6.62078 24.9238 6.58474 24.7173 6.55875C23.864 6.44675 22.7866 6.44675 21.4506 6.44675H21.0053C19.7493 6.44675 19.272 6.44008 18.8386 6.31208C18.5864 6.23727 18.3438 6.133 18.116 6.00141C17.7213 5.77475 17.38 5.43075 16.492 4.51075L16 4.00008H21.7106ZM17.3333 12.3334C17.0681 12.3334 16.8137 12.4388 16.6262 12.6263C16.4386 12.8138 16.3333 13.0682 16.3333 13.3334C16.3333 13.5986 16.4386 13.853 16.6262 14.0405C16.8137 14.2281 17.0681 14.3334 17.3333 14.3334H24C24.2652 14.3334 24.5195 14.2281 24.7071 14.0405C24.8946 13.853 25 13.5986 25 13.3334C25 13.0682 24.8946 12.8138 24.7071 12.6263C24.5195 12.4388 24.2652 12.3334 24 12.3334H17.3333Z" fill="#6F6F6F"/>
</svg>
