<svg width="20" height="20" viewBox="0 0 20 20" fill="none" xmlns="http://www.w3.org/2000/svg">
<path fill-rule="evenodd" clip-rule="evenodd" d="M0.910787 2.14911C1.04734 1.8548 1.34228 1.6665 1.66672 1.6665H18.3334C18.6578 1.6665 18.9528 1.8548 19.0893 2.14911C19.2259 2.44341 19.1792 2.79021 18.9697 3.03794L12.5001 10.6883V17.4998C12.5001 17.7887 12.3505 18.0569 12.1048 18.2087C11.8591 18.3606 11.5524 18.3744 11.294 18.2452L7.96071 16.5785C7.67839 16.4374 7.50005 16.1488 7.50005 15.8332V10.6883L1.03041 3.03794C0.820912 2.79021 0.774238 2.44341 0.910787 2.14911ZM3.4628 3.33317L8.96969 9.84507C9.09691 9.9955 9.16672 10.1862 9.16672 10.3832V15.3181L10.8334 16.1515V10.3832C10.8334 10.1862 10.9032 9.9955 11.0304 9.84507L16.5373 3.33317H3.4628Z" fill="white"/>
</svg>
