<svg width="34" height="34" viewBox="0 0 34 34" fill="none" xmlns="http://www.w3.org/2000/svg">
<path d="M7.08333 29.75C6.30417 29.75 5.63739 29.4728 5.083 28.9184C4.52861 28.364 4.25094 27.6968 4.25 26.9167V7.08333C4.25 6.30417 4.52767 5.63739 5.083 5.083C5.63833 4.52861 6.30511 4.25094 7.08333 4.25H26.9167C27.6958 4.25 28.3631 4.52767 28.9184 5.083C29.4737 5.63833 29.7509 6.30511 29.75 7.08333V26.9167C29.75 27.6958 29.4728 28.3631 28.9184 28.9184C28.364 29.4737 27.6968 29.7509 26.9167 29.75H7.08333ZM8.5 24.0833H25.5L20.1875 17L15.9375 22.6667L12.75 18.4167L8.5 24.0833Z" fill="#6F6F6F"/>
</svg>
