<svg width="26" height="28" viewBox="0 0 26 28" fill="none" xmlns="http://www.w3.org/2000/svg">
<path d="M13.125 12.125V16.625H20.625C20.25 18.5 18.375 22.25 13.125 22.25C8.625 22.25 5.0625 18.5 5.0625 14C5.0625 9.5 8.625 5.75 13.125 5.75C15.75 5.75 17.4375 6.875 18.375 7.8125L21.9375 4.4375C19.6875 2.1875 16.6875 0.875 13.125 0.875C5.8125 0.875 0 6.6875 0 14C0 21.3125 5.8125 27.125 13.125 27.125C20.625 27.125 25.6875 21.875 25.6875 14.375C25.6875 13.4375 25.6875 12.875 25.5 12.125H13.125Z" fill="#ED0017"/>
</svg>
