<svg width="25" height="24" viewBox="0 0 25 24" fill="none" xmlns="http://www.w3.org/2000/svg">
<path d="M8.5 4H21.5V6H8.5V4ZM5 6.5C4.17157 6.5 3.5 5.82843 3.5 5C3.5 4.17157 4.17157 3.5 5 3.5C5.82843 3.5 6.5 4.17157 6.5 5C6.5 5.82843 5.82843 6.5 5 6.5ZM5 13.5C4.17157 13.5 3.5 12.8284 3.5 12C3.5 11.1716 4.17157 10.5 5 10.5C5.82843 10.5 6.5 11.1716 6.5 12C6.5 12.8284 5.82843 13.5 5 13.5ZM5 20.4C4.17157 20.4 3.5 19.7284 3.5 18.9C3.5 18.0716 4.17157 17.4 5 17.4C5.82843 17.4 6.5 18.0716 6.5 18.9C6.5 19.7284 5.82843 20.4 5 20.4ZM8.5 11H21.5V13H8.5V11ZM8.5 18H21.5V20H8.5V18Z" fill="#999999"/>
</svg>
