<svg width="25" height="24" viewBox="0 0 25 24" fill="none" xmlns="http://www.w3.org/2000/svg">
<path d="M19.5 6.5H16.5V5.5C16.5 4.70435 16.1839 3.94129 15.6213 3.37868C15.0587 2.81607 14.2956 2.5 13.5 2.5H11.5C10.7044 2.5 9.94129 2.81607 9.37868 3.37868C8.81607 3.94129 8.5 4.70435 8.5 5.5V6.5H5.5C4.70435 6.5 3.94129 6.81607 3.37868 7.37868C2.81607 7.94129 2.5 8.70435 2.5 9.5V18.5C2.5 19.2956 2.81607 20.0587 3.37868 20.6213C3.94129 21.1839 4.70435 21.5 5.5 21.5H19.5C20.2956 21.5 21.0587 21.1839 21.6213 20.6213C22.1839 20.0587 22.5 19.2956 22.5 18.5V9.5C22.5 8.70435 22.1839 7.94129 21.6213 7.37868C21.0587 6.81607 20.2956 6.5 19.5 6.5ZM10.5 5.5C10.5 5.23478 10.6054 4.98043 10.7929 4.79289C10.9804 4.60536 11.2348 4.5 11.5 4.5H13.5C13.7652 4.5 14.0196 4.60536 14.2071 4.79289C14.3946 4.98043 14.5 5.23478 14.5 5.5V6.5H10.5V5.5ZM20.5 18.5C20.5 18.7652 20.3946 19.0196 20.2071 19.2071C20.0196 19.3946 19.7652 19.5 19.5 19.5H5.5C5.23478 19.5 4.98043 19.3946 4.79289 19.2071C4.60536 19.0196 4.5 18.7652 4.5 18.5V13C7.04626 14.0101 9.76069 14.5293 12.5 14.53C15.2392 14.5283 17.9535 14.0092 20.5 13V18.5ZM20.5 10.81C17.9784 11.9178 15.2542 12.4898 12.5 12.4898C9.74579 12.4898 7.0216 11.9178 4.5 10.81V9.5C4.5 9.23478 4.60536 8.98043 4.79289 8.79289C4.98043 8.60536 5.23478 8.5 5.5 8.5H19.5C19.7652 8.5 20.0196 8.60536 20.2071 8.79289C20.3946 8.98043 20.5 9.23478 20.5 9.5V10.81Z" fill="#999999"/>
</svg>
