<svg width="20" height="20" viewBox="0 0 20 20" fill="none" xmlns="http://www.w3.org/2000/svg">
<path d="M18.0911 16.9085L14.9994 13.8418C16.1995 12.3455 16.7807 10.4462 16.6234 8.53458C16.4662 6.62292 15.5825 4.84415 14.154 3.56403C12.7256 2.28392 10.8609 1.59976 8.94353 1.65222C7.02613 1.70469 5.2017 2.4898 3.84538 3.84612C2.48907 5.20243 1.70396 7.02686 1.65149 8.94427C1.59902 10.8617 2.28319 12.7263 3.5633 14.1548C4.84342 15.5832 6.62218 16.4669 8.53385 16.6242C10.4455 16.7814 12.3448 16.2002 13.8411 15.0002L16.9078 18.0668C16.9852 18.1449 17.0774 18.2069 17.179 18.2492C17.2805 18.2915 17.3894 18.3133 17.4994 18.3133C17.6094 18.3133 17.7184 18.2915 17.8199 18.2492C17.9215 18.2069 18.0136 18.1449 18.0911 18.0668C18.2413 17.9114 18.3253 17.7038 18.3253 17.4877C18.3253 17.2716 18.2413 17.0639 18.0911 16.9085ZM9.1661 15.0002C8.01237 15.0002 6.88456 14.658 5.92527 14.0171C4.96599 13.3761 4.21831 12.4651 3.7768 11.3992C3.33529 10.3333 3.21977 9.16036 3.44485 8.0288C3.66993 6.89725 4.2255 5.85785 5.04131 5.04204C5.85712 4.22624 6.89652 3.67066 8.02807 3.44558C9.15963 3.2205 10.3325 3.33602 11.3984 3.77753C12.4643 4.21904 13.3754 4.96672 14.0163 5.926C14.6573 6.88529 14.9994 8.01311 14.9994 9.16683C14.9994 10.7139 14.3849 12.1977 13.2909 13.2916C12.1969 14.3856 10.7132 15.0002 9.1661 15.0002Z" fill="black" fill-opacity="0.4"/>
</svg>
