<svg width="65" height="64" viewBox="0 0 65 64" fill="none" xmlns="http://www.w3.org/2000/svg">
<path d="M13.8333 56C12.3667 56 11.1116 55.4782 10.068 54.4347C9.02444 53.3911 8.50178 52.1351 8.5 50.6667V13.3333C8.5 11.8667 9.02267 10.6116 10.068 9.568C11.1133 8.52444 12.3684 8.00178 13.8333 8H51.1667C52.6333 8 53.8893 8.52267 54.9347 9.568C55.98 10.6133 56.5018 11.8684 56.5 13.3333V50.6667C56.5 52.1333 55.9782 53.3893 54.9347 54.4347C53.8911 55.48 52.6351 56.0018 51.1667 56H13.8333ZM16.5 45.3333H48.5L38.5 32L30.5 42.6667L24.5 34.6667L16.5 45.3333Z" fill="url(#paint0_linear_626_3765)"/>
<defs>
<linearGradient id="paint0_linear_626_3765" x1="-0.283992" y1="32" x2="61.348" y2="32" gradientUnits="userSpaceOnUse">
<stop stop-color="#35BAB2"/>
<stop offset="1" stop-color="#3592BA"/>
</linearGradient>
</defs>
</svg>
