<svg width="47" height="13" viewBox="0 0 47 13" fill="none" xmlns="http://www.w3.org/2000/svg">
<g filter="url(#filter0_b_2396_8323)">
<path fill-rule="evenodd" clip-rule="evenodd" d="M47 12.9971C45.2875 12.9971 43.5755 13.0056 41.863 12.9871C40.224 12.9691 38.3896 12.9436 36.7945 12.3421C35.0716 11.692 33.9309 10.5555 32.7832 9.21799C31.957 8.25597 30.334 6.20343 29.5437 5.21241C28.8969 4.39989 27.6308 2.79386 26.9395 2.01684C26.0692 1.03932 24.9936 0.000297546 23.4995 0.000297546C22.0054 0.000297546 20.9303 1.03932 20.0605 2.01584C19.3692 2.79236 18.1031 4.39939 17.4558 5.21141C16.6665 6.20243 15.0435 8.25497 14.2168 9.21699C13.0671 10.5545 11.9284 11.691 10.206 12.3411C8.61044 12.9411 6.77548 12.9681 5.13747 12.9861C3.42448 13.0046 1.71249 12.9961 0 12.9961" fill="white"/>
</g>
<defs>
<filter id="filter0_b_2396_8323" x="-130" y="-130" width="307" height="272.999" filterUnits="userSpaceOnUse" color-interpolation-filters="sRGB">
<feFlood flood-opacity="0" result="BackgroundImageFix"/>
<feGaussianBlur in="BackgroundImageFix" stdDeviation="65"/>
<feComposite in2="SourceAlpha" operator="in" result="effect1_backgroundBlur_2396_8323"/>
<feBlend mode="normal" in="SourceGraphic" in2="effect1_backgroundBlur_2396_8323" result="shape"/>
</filter>
</defs>
</svg>
