<svg width="32" height="32" viewBox="0 0 32 32" fill="none" xmlns="http://www.w3.org/2000/svg">
<path d="M7.99996 26.6668C6.53329 26.6668 5.27774 26.1446 4.23329 25.1002C3.18885 24.0557 2.66663 22.8002 2.66663 21.3335V10.6668C2.66663 9.20016 3.18885 7.94461 4.23329 6.90016C5.27774 5.85572 6.53329 5.3335 7.99996 5.3335H24C25.4666 5.3335 26.7222 5.85572 27.7666 6.90016C28.8111 7.94461 29.3333 9.20016 29.3333 10.6668V21.3335C29.3333 22.8002 28.8111 24.0557 27.7666 25.1002C26.7222 26.1446 25.4666 26.6668 24 26.6668H7.99996ZM7.99996 10.6668H24C24.4888 10.6668 24.9555 10.7224 25.4 10.8335C25.8444 10.9446 26.2666 11.1224 26.6666 11.3668V10.6668C26.6666 9.9335 26.4057 9.30594 25.884 8.78416C25.3622 8.26238 24.7342 8.00105 24 8.00016H7.99996C7.26663 8.00016 6.63907 8.2615 6.11729 8.78416C5.59551 9.30683 5.33418 9.93439 5.33329 10.6668V11.3668C5.73329 11.1224 6.15551 10.9446 6.59996 10.8335C7.0444 10.7224 7.51107 10.6668 7.99996 10.6668ZM5.53329 15.0002L20.3666 18.6002C20.5666 18.6446 20.7666 18.6446 20.9666 18.6002C21.1666 18.5557 21.3555 18.4668 21.5333 18.3335L26.1666 14.4668C25.9222 14.1335 25.6111 13.8615 25.2333 13.6508C24.8555 13.4402 24.4444 13.3344 24 13.3335H7.99996C7.42218 13.3335 6.91685 13.4837 6.48396 13.7842C6.05107 14.0846 5.73418 14.4899 5.53329 15.0002Z" fill="#C9C9C9"/>
</svg>
