<svg width="31" height="30" viewBox="0 0 31 30" fill="none" xmlns="http://www.w3.org/2000/svg">
<g clip-path="url(#clip0_1234_7918)">
<path fill-rule="evenodd" clip-rule="evenodd" d="M23 30H8C7.01505 30.0001 6.03973 29.8062 5.12974 29.4293C4.21975 29.0525 3.39291 28.5 2.69645 27.8035C1.99999 27.1071 1.44755 26.2802 1.07068 25.3703C0.693807 24.4603 0.499889 23.4849 0.5 22.5V7.5C0.499889 6.51505 0.693807 5.53973 1.07068 4.62974C1.44755 3.71975 1.99999 2.89291 2.69645 2.19645C3.39291 1.49999 4.21975 0.947549 5.12974 0.570678C6.03973 0.193807 7.01505 -0.000110778 8 4.7476e-08H23C23.9849 -0.000110778 24.9603 0.193807 25.8703 0.570678C26.7802 0.947549 27.6071 1.49999 28.3035 2.19645C29 2.89291 29.5525 3.71975 29.9293 4.62974C30.3062 5.53973 30.5001 6.51505 30.5 7.5V22.5C30.5001 23.4849 30.3062 24.4603 29.9293 25.3703C29.5525 26.2802 29 27.1071 28.3035 27.8035C27.6071 28.5 26.7802 29.0525 25.8703 29.4293C24.9603 29.8062 23.9849 30.0001 23 30Z" fill="#781EF5"/>
<path fill-rule="evenodd" clip-rule="evenodd" d="M14.5625 8.4375H23C24.0815 8.43743 25.1217 8.02203 25.9058 7.27707C26.6899 6.53211 27.1579 5.51449 27.2132 4.43438C27.2686 3.35426 26.907 2.29414 26.2032 1.47294C25.4994 0.651736 24.5071 0.132179 23.4312 0.0215625C23.2859 0.0135938 23.1453 4.7476e-08 23 4.7476e-08H8C7.01505 -0.000110778 6.03973 0.193807 5.12974 0.570678C4.21975 0.947549 3.39291 1.49999 2.69645 2.19645C1.99999 2.89291 1.44755 3.71975 1.07068 4.62974C0.693807 5.53973 0.499889 6.51505 0.5 7.5V22.5C0.5 18.7704 1.98158 15.1935 4.61881 12.5563C7.25604 9.91908 10.8329 8.4375 14.5625 8.4375Z" fill="#8746FF"/>
<path fill-rule="evenodd" clip-rule="evenodd" d="M23 15C21.5166 15 20.0666 15.4399 18.8332 16.264C17.5999 17.0881 16.6386 18.2594 16.0709 19.6299C15.5032 21.0003 15.3547 22.5083 15.6441 23.9632C15.9335 25.418 16.6478 26.7544 17.6967 27.8033C18.7456 28.8522 20.082 29.5665 21.5368 29.8559C22.9917 30.1453 24.4997 29.9968 25.8701 29.4291C27.2406 28.8614 28.4119 27.9001 29.236 26.6668C30.0601 25.4334 30.5 23.9834 30.5 22.5V7.5C30.5001 8.48495 30.3062 9.46026 29.9293 10.3703C29.5525 11.2802 29 12.1071 28.3036 12.8035C27.6071 13.5 26.7803 14.0525 25.8703 14.4293C24.9603 14.8062 23.985 15.0001 23 15Z" fill="#6400DC"/>
<path fill-rule="evenodd" clip-rule="evenodd" d="M11.5156 15.7209C11.5156 15.7209 13.2172 11.5298 13.8547 9.95953C13.9255 9.78649 14.0462 9.63848 14.2015 9.53436C14.3568 9.43025 14.5396 9.37477 14.7265 9.375H17.614C17.6908 9.37512 17.7664 9.39404 17.8342 9.43011C17.902 9.46619 17.96 9.51832 18.003 9.58195C18.046 9.64558 18.0728 9.71877 18.0809 9.79513C18.0891 9.87149 18.0785 9.9487 18.05 10.02C17.0422 12.5025 13.4187 21.4158 12.4578 23.7905C12.387 23.9635 12.2662 24.1115 12.111 24.2156C11.9557 24.3197 11.7729 24.3752 11.5859 24.375H8.69841C8.62161 24.3749 8.54601 24.356 8.47821 24.3199C8.41041 24.2838 8.35248 24.2317 8.30947 24.1681C8.26646 24.1044 8.2397 24.0312 8.2315 23.9549C8.22331 23.8785 8.23394 23.8013 8.26247 23.73C8.67029 22.7283 9.40622 20.9133 9.40622 20.9133C9.40622 20.9133 5.97029 12.4505 4.98122 10.02C4.95269 9.9487 4.94206 9.87149 4.95025 9.79513C4.95845 9.71877 4.98521 9.64558 5.02822 9.58195C5.07123 9.51832 5.12916 9.46619 5.19696 9.43011C5.26476 9.39404 5.34036 9.37512 5.41716 9.375H8.30466C8.49162 9.37477 8.67441 9.43025 8.8297 9.53436C8.98499 9.63848 9.10574 9.78649 9.17654 9.95953C9.81404 11.5298 11.5156 15.7209 11.5156 15.7209Z" fill="white"/>
<path fill-rule="evenodd" clip-rule="evenodd" d="M18.4906 13.4161C18.4621 13.4875 18.4514 13.5648 18.4596 13.6413C18.4677 13.7178 18.4945 13.7911 18.5375 13.8548C18.5798 13.9192 18.6376 13.972 18.7056 14.0083C18.7735 14.0445 18.8495 14.0632 18.9266 14.0625H21.8188C22.0048 14.0622 22.1865 14.0067 22.3409 13.9029C22.4953 13.7992 22.6154 13.6519 22.6859 13.4798C23.3656 11.8195 25.3063 7.07062 26.0188 5.33391C26.0473 5.26252 26.058 5.18523 26.0499 5.10877C26.0417 5.03231 26.015 4.959 25.972 4.89525C25.929 4.8315 25.871 4.77924 25.8032 4.74302C25.7354 4.70681 25.6597 4.68775 25.5828 4.6875H22.6906C22.5046 4.6878 22.3229 4.74334 22.1685 4.84707C22.0141 4.95081 21.894 5.09806 21.8234 5.27016C21.1438 6.93047 19.2031 11.6794 18.4906 13.4161Z" fill="white"/>
<path d="M19.25 20.625C20.6739 20.625 21.8281 19.4707 21.8281 18.0469C21.8281 16.623 20.6739 15.4688 19.25 15.4688C17.8261 15.4688 16.6719 16.623 16.6719 18.0469C16.6719 19.4707 17.8261 20.625 19.25 20.625Z" fill="white"/>
</g>
<defs>
<clipPath id="clip0_1234_7918">
<rect width="30" height="30" fill="white" transform="translate(0.5)"/>
</clipPath>
</defs>
</svg>
